<?xml version="1.0" encoding="UTF-8" standalone="no"?>
<svg width="50px" height="50px" viewBox="0 0 50 50" version="1.1" xmlns="http://www.w3.org/2000/svg" xmlns:xlink="http://www.w3.org/1999/xlink" xmlns:sketch="http://www.bohemiancoding.com/sketch/ns">
    <!-- Generator: Sketch 3.2 (9961) - http://www.bohemiancoding.com/sketch -->
    <title>Oval 1 + Imported Layers 2</title>
    <desc>Created with Sketch.</desc>
    <defs></defs>
    <g id="Page-1" stroke="none" stroke-width="1" fill="none" fill-rule="evenodd" sketch:type="MSPage">
        <g id="Group" sketch:type="MSLayerGroup" transform="translate(-858.000000, -778.000000)">
            <g id="Oval-1-+-Imported-Layers-2" transform="translate(858.000000, 778.000000)" sketch:type="MSShapeGroup">
                <circle id="Oval-1" fill="#3AAAE1" cx="25" cy="25" r="25"></circle>
                <path d="M35.5524552,17.3461032 C36.721959,16.6466442 37.6203134,15.5390527 38.0431903,14.2191992 C36.9485149,14.8670045 35.7362127,15.3372592 34.4457687,15.5907063 C33.4125299,14.4922058 31.9402612,13.8059701 30.3108806,13.8059701 C27.1824478,13.8059701 24.6458769,16.3364469 24.6458769,19.4577035 C24.6458769,19.900685 24.6959925,20.3320961 24.7924963,20.7457383 C20.0843843,20.5100601 15.9102873,18.2598903 13.1162351,14.8404201 C12.6286082,15.6751428 12.3491754,16.6459555 12.3491754,17.6817829 C12.3491754,19.6426923 13.3492799,21.3726068 14.8693172,22.3861198 C13.9407276,22.3567806 13.0672239,22.102507 12.3034776,21.6792227 C12.3029254,21.7027768 12.3029254,21.7264686 12.3029254,21.7502981 C12.3029254,24.4886291 14.2556418,26.7729591 16.8471604,27.2922503 C16.3718209,27.4214532 15.8713545,27.4904624 15.3547351,27.4904624 C14.9897052,27.4904624 14.6348918,27.4549247 14.2889142,27.3890836 C15.0098619,29.6344324 17.1018806,31.2686154 19.5808806,31.3140706 C17.6421082,32.8300701 15.199556,33.7335265 12.5453582,33.7335265 C12.0881045,33.7335265 11.6372015,33.7068044 11.1940299,33.654462 C13.701056,35.2582039 16.6787276,36.1940299 19.877847,36.1940299 C30.2976269,36.1940299 35.9957649,27.5817861 35.9957649,20.112947 C35.9957649,19.8679022 35.9902425,19.6242348 35.9793358,19.3816693 C37.0861604,18.5849638 38.0465037,17.5894951 38.8059701,16.4561456 C37.7901269,16.9057388 36.6982127,17.2094621 35.5524552,17.3461032 Z" id="Shape" fill="#FFFFFF"></path>
            </g>
        </g>
    </g>
</svg>